<svg xmlns="http://www.w3.org/2000/svg" xmlns:xlink="http://www.w3.org/1999/xlink" width="44.055" height="44.091" viewBox="0 0 44.055 44.091">
  <defs>
    <linearGradient id="linear-gradient" x1="0.098" y1="0.099" x2="0.921" y2="0.921" gradientUnits="objectBoundingBox">
      <stop offset="0" stop-color="#5bcdff"/>
      <stop offset="1" stop-color="#5bd330"/>
    </linearGradient>
  </defs>
  <g id="레이어_2" data-name="레이어 2" transform="translate(0.001 0.025)">
    <g id="레이어_1" data-name="레이어 1" transform="translate(-0.001 -0.025)">
      <path id="패스_11" data-name="패스 11" d="M31.83,19.586H12.466a7.509,7.509,0,0,1-7.6-6.828A7.4,7.4,0,0,1,15.032,5.381,7.252,7.252,0,0,1,19.6,12.216h0v4.172a1.391,1.391,0,0,0,1.391,1.391h2.086a1.391,1.391,0,0,0,1.391-1.391V12.216h0A12.119,12.119,0,0,0,15.991.556,12.265,12.265,0,0,0,0,12.376a12.568,12.568,0,0,0,12.55,12.1H31.83a7.37,7.37,0,1,1-7.447,7.349h0V27.658a1.391,1.391,0,0,0-1.391-1.391H20.907a1.391,1.391,0,0,0-1.391,1.391V31.83h0A12.237,12.237,0,1,0,31.83,19.593ZM18.411,35.828a7.363,7.363,0,1,1-10-10.3,12.731,12.731,0,0,1-4.867-2.294A12.223,12.223,0,0,0,20.664,40.667,12.1,12.1,0,0,1,18.411,35.828ZM31.83-.007a12.105,12.105,0,0,0-8.441,3.4A12.425,12.425,0,0,1,25.6,8.336,7.363,7.363,0,1,1,35.724,18.473a12.223,12.223,0,0,1,4.867,2.267A12.223,12.223,0,0,0,31.83-.007Z" transform="translate(0.001 0.025)" fill="url(#linear-gradient)"/>
    </g>
  </g>
</svg>
