<svg xmlns="http://www.w3.org/2000/svg" xmlns:xlink="http://www.w3.org/1999/xlink" width="167.553" height="54.462" viewBox="0 0 167.553 54.462">
  <defs>
    <linearGradient id="linear-gradient" y1="0.5" x2="1.222" y2="0.5" gradientUnits="objectBoundingBox">
      <stop offset="0" stop-color="#5bcdff"/>
      <stop offset="1" stop-color="#5bd330"/>
    </linearGradient>
    <linearGradient id="linear-gradient-2" y1="0.5" x2="1" y2="0.5" gradientUnits="objectBoundingBox">
      <stop offset="0" stop-color="#5bcdff"/>
      <stop offset="1" stop-color="#5bd245"/>
    </linearGradient>
  </defs>
  <g id="레이어_2" data-name="레이어 2" transform="translate(0 24.245)">
    <g id="레이어_1" data-name="레이어 1" transform="translate(0 -0.001)">
      <path id="Path_17" data-name="Path 17" d="M0,29.563V.4H5.037V24.438h17.28v.882a4.057,4.057,0,0,1-.331,1.613,3.963,3.963,0,0,1-.951,1.348,4.771,4.771,0,0,1-1.479.928,4.891,4.891,0,0,1-1.879.354ZM23.43,15.112a14.676,14.676,0,0,1,1.142-5.768,15.307,15.307,0,0,1,3.189-4.794,14.887,14.887,0,0,1,4.683-3.292A13.8,13.8,0,0,1,38.189.042,14.056,14.056,0,0,1,44,1.259a15.19,15.19,0,0,1,4.708,3.249,15.7,15.7,0,0,1,3.141,4.817,14.827,14.827,0,0,1,1.142,5.788,15.062,15.062,0,0,1-9.02,13.877,14.136,14.136,0,0,1-5.79,1.193,13.8,13.8,0,0,1-5.745-1.216,14.847,14.847,0,0,1-4.683-3.292A14.67,14.67,0,0,1,24.578,20.9a14.847,14.847,0,0,1-1.148-5.79Zm5.479-.043a9.137,9.137,0,0,0,.708,3.558,9.665,9.665,0,0,0,2,3.027,9.422,9.422,0,0,0,2.961,2.121,8.777,8.777,0,0,0,3.712.794,8.686,8.686,0,0,0,3.646-.774,10.079,10.079,0,0,0,5.005-5.1,9,9,0,0,0,.742-3.623,9.137,9.137,0,0,0-.774-3.735,10.536,10.536,0,0,0-2.056-3.072A10.039,10.039,0,0,0,41.872,6.21a8.774,8.774,0,0,0-7.25.02,10.036,10.036,0,0,0-2.981,2.121,9.831,9.831,0,0,0-2,3.072,9.382,9.382,0,0,0-.734,3.646ZM81.809.839V17.765a14.134,14.134,0,0,1-.971,5.425,10.85,10.85,0,0,1-2.653,3.892,11.175,11.175,0,0,1-4,2.341,15.33,15.33,0,0,1-5.014.794,14.727,14.727,0,0,1-4.84-.771,10.322,10.322,0,0,1-3.866-2.364,10.733,10.733,0,0,1-2.57-3.869,14.613,14.613,0,0,1-.928-5.456V.839h5.217V17.114a10.745,10.745,0,0,0,.531,3.578,6.8,6.8,0,0,0,1.459,2.476,5.445,5.445,0,0,0,2.21,1.428,8.42,8.42,0,0,0,2.784.443,9.323,9.323,0,0,0,2.938-.443,5.756,5.756,0,0,0,2.318-1.428A6.716,6.716,0,0,0,75.95,20.68a10.362,10.362,0,0,0,.571-3.578V.828ZM110.345.4V28.9c0,.443-.206.662-.617.662h-3.869c-.071,0-.126-.057-.154-.177L91.566,10.738v18.87H86.515V.4H90.8a1.034,1.034,0,0,1,.246.046.528.528,0,0,1,.286.266l13.877,18.516V.4ZM141.35,20.018c-.117.471-.248.959-.4,1.459-.148.414-.34.857-.571,1.371a8.4,8.4,0,0,1-.928,1.5,15.441,15.441,0,0,1-4.728,4.066,12.863,12.863,0,0,1-6.407,1.59,14.042,14.042,0,0,1-5.591-1.142,13.777,13.777,0,0,1-4.568-3.158,14.9,14.9,0,0,1-3.092-4.737,15.4,15.4,0,0,1-1.142-6,15.013,15.013,0,0,1,1.142-5.879,15.481,15.481,0,0,1,3.084-4.763,14.679,14.679,0,0,1,4.568-3.161A13.6,13.6,0,0,1,128.316,0,12.529,12.529,0,0,1,131.8.485a16.792,16.792,0,0,1,3.184,1.282,16.22,16.22,0,0,1,2.718,1.967,19.612,19.612,0,0,1,2.284,2.407L135.782,9.81a10.564,10.564,0,0,0-1.413-1.57,13.241,13.241,0,0,0-1.81-1.388,12.94,12.94,0,0,0-2.1-.951,6.567,6.567,0,0,0-2.141-.374,9.011,9.011,0,0,0-3.469.662,8.209,8.209,0,0,0-2.807,1.9,8.886,8.886,0,0,0-1.944,2.984,10.341,10.341,0,0,0-.708,3.912,10.5,10.5,0,0,0,.708,3.932,8.817,8.817,0,0,0,1.944,3.007,8.169,8.169,0,0,0,2.807,1.9,9.011,9.011,0,0,0,3.469.662,7.312,7.312,0,0,0,2.364-.4,9.548,9.548,0,0,0,2.23-1.1,9.9,9.9,0,0,0,1.859-1.568,11.218,11.218,0,0,0,1.428-1.879V18.427h-7.615V13.256H141.35ZM145.5.4h21.343V5.536H150.538v6.219H165.7v.882a4.058,4.058,0,0,1-.331,1.613,3.923,3.923,0,0,1-.951,1.348,4.771,4.771,0,0,1-1.479.928,4.891,4.891,0,0,1-1.879.354H150.538v7.558h17.015v.882a4.057,4.057,0,0,1-.331,1.613,3.886,3.886,0,0,1-.951,1.348,4.771,4.771,0,0,1-1.479.928,4.891,4.891,0,0,1-1.879.354H145.5Z" transform="translate(0 0.001)" fill="url(#linear-gradient)"/>
    </g>
  </g>
  <path id="거의_완료되었습니다_" data-name="거의 완료되었습니다 " d="M579.4,610.81h7.038v1.731h-5.016v3.479q.84,0,1.6-.008t1.481-.032c.48-.016.963-.043,1.448-.081s.987-.084,1.5-.138l.178,1.7q-.728.1-1.529.154t-1.772.089q-.971.033-2.176.04t-2.758.008Zm6.763,14.6a7.859,7.859,0,0,1-1.885-.21,4.846,4.846,0,0,1-1.456-.6,2.91,2.91,0,0,1-.939-.93,2.232,2.232,0,0,1-.331-1.189v-.68a2.23,2.23,0,0,1,.331-1.189,2.917,2.917,0,0,1,.939-.93,4.831,4.831,0,0,1,1.456-.6,8.551,8.551,0,0,1,3.77,0,4.841,4.841,0,0,1,1.456.6,2.927,2.927,0,0,1,.939.93,2.236,2.236,0,0,1,.332,1.189v.68a2.238,2.238,0,0,1-.332,1.189,2.92,2.92,0,0,1-.939.93,4.856,4.856,0,0,1-1.456.6A7.86,7.86,0,0,1,586.158,625.4Zm0-4.871a4.327,4.327,0,0,0-1.1.129,3.142,3.142,0,0,0-.817.332,1.74,1.74,0,0,0-.51.445.817.817,0,0,0-.178.485v.421a.817.817,0,0,0,.178.485,1.748,1.748,0,0,0,.51.445,3.1,3.1,0,0,0,.817.332,4.741,4.741,0,0,0,2.2,0,3.111,3.111,0,0,0,.817-.332,1.758,1.758,0,0,0,.51-.445.817.817,0,0,0,.178-.485v-.421a.817.817,0,0,0-.178-.485,1.749,1.749,0,0,0-.51-.445,3.153,3.153,0,0,0-.817-.332A4.324,4.324,0,0,0,586.158,620.534Zm4.563-7.33H592.7v1.78h-1.974V618.8h-2.039v-8.9h2.039Zm7.524,2.638a1.235,1.235,0,0,1-.332.51c-.188.2-.407.413-.655.639q-.551.518-1.109,1t-1.318,1.092l-1.262-1.489q.631-.485,1.278-1.052t1.214-1.1a3.711,3.711,0,0,0,.833-1.133,3.44,3.44,0,0,0,.251-1.392v-2.346h2.071v2.265a5.645,5.645,0,0,0,.048.777,2.566,2.566,0,0,0,.162.615,2.115,2.115,0,0,0,.316.526,4.016,4.016,0,0,0,.526.526q.582.5,1.189.963t1.189.882l-1.182,1.424q-.47-.34-1.011-.752t-1.108-.882q-.421-.34-.712-.6a1.319,1.319,0,0,1-.372-.469Zm.259,7.2h7.751v1.748h-9.806v-5.113H598.5Zm7.508-2.459h-2.039V609.9h2.039Zm2.524-.453q1.861,0,3.325-.016t2.621-.049q1.158-.033,2.047-.081t1.618-.129l.146,1.748q-.7.081-1.609.138t-2.1.089q-1.19.033-2.687.049t-3.357.016Zm4.644-1.861a4.792,4.792,0,0,1-1.659-.275,4,4,0,0,1-1.287-.744,3.44,3.44,0,0,1-.833-1.084,2.916,2.916,0,0,1-.3-1.294v-.647a2.918,2.918,0,0,1,.3-1.294,3.44,3.44,0,0,1,.833-1.084,4.018,4.018,0,0,1,1.287-.744,5.137,5.137,0,0,1,3.317,0,4.02,4.02,0,0,1,1.286.744,3.431,3.431,0,0,1,.833,1.084,2.918,2.918,0,0,1,.3,1.294v.647a2.916,2.916,0,0,1-.3,1.294,3.431,3.431,0,0,1-.833,1.084,4,4,0,0,1-1.286.744A4.8,4.8,0,0,1,613.181,618.269Zm0-5.7a2.414,2.414,0,0,0-.882.154,2.326,2.326,0,0,0-.68.4,1.64,1.64,0,0,0-.429.558,1.548,1.548,0,0,0-.146.655v.421a1.548,1.548,0,0,0,.146.655,1.64,1.64,0,0,0,.429.558,2.326,2.326,0,0,0,.68.4,2.606,2.606,0,0,0,1.764,0,2.33,2.33,0,0,0,.679-.4,1.639,1.639,0,0,0,.429-.558,1.556,1.556,0,0,0,.145-.655v-.421a1.556,1.556,0,0,0-.145-.655,1.639,1.639,0,0,0-.429-.558,2.33,2.33,0,0,0-.679-.4A2.421,2.421,0,0,0,613.181,612.573Zm7.766,12.379h-2.023V609.9h2.023Zm11.925-7.249v-1.909h2.039V617.7h5.874v1.715H627V617.7Zm1.036-3.657a1.863,1.863,0,0,1-.542.485,9.967,9.967,0,0,1-1.351.712q-.728.34-1.521.68t-1.715.712l-.777-1.65q.825-.323,1.707-.7t1.659-.752a3.688,3.688,0,0,0,1.117-.793,1.722,1.722,0,0,0,.372-1.181v-1.408h2.071v1.408a1.754,1.754,0,0,0,.364,1.173,3.48,3.48,0,0,0,1.108.8q.777.373,1.659.752t1.707.7L639,616.6q-.922-.372-1.723-.72t-1.512-.671a11.2,11.2,0,0,1-1.328-.7,1.5,1.5,0,0,1-.518-.469Zm-2.929,9.013h8.155v1.731H628.94v-4.466h2.039Zm18.98-4.741a4.293,4.293,0,0,1-1.6-.283,3.658,3.658,0,0,1-1.214-.769,3.368,3.368,0,0,1-.769-1.117,3.32,3.32,0,0,1-.267-1.311v-.906a3.32,3.32,0,0,1,.267-1.311,3.368,3.368,0,0,1,.769-1.116,3.659,3.659,0,0,1,1.214-.769,4.673,4.673,0,0,1,3.2,0,3.674,3.674,0,0,1,1.214.769,3.368,3.368,0,0,1,.769,1.116,3.332,3.332,0,0,1,.267,1.311v.906a3.331,3.331,0,0,1-.267,1.311,3.368,3.368,0,0,1-.769,1.117,3.673,3.673,0,0,1-1.214.769A4.3,4.3,0,0,1,649.959,618.318Zm0-6.1a2.014,2.014,0,0,0-.808.154,1.863,1.863,0,0,0-.607.413,1.728,1.728,0,0,0-.38.6,1.935,1.935,0,0,0-.129.7v.615a1.912,1.912,0,0,0,.129.7,1.749,1.749,0,0,0,.38.591,1.855,1.855,0,0,0,.607.413,2.206,2.206,0,0,0,1.618,0,1.862,1.862,0,0,0,.607-.413,1.787,1.787,0,0,0,.38-.591,1.912,1.912,0,0,0,.129-.7v-.615a1.935,1.935,0,0,0-.129-.7,1.764,1.764,0,0,0-.38-.6,1.87,1.87,0,0,0-.607-.413A2.022,2.022,0,0,0,649.959,612.217Zm.437,10.825h7.67v1.748h-9.725v-5.016H650.4Zm7.314-9.126h1.974v1.78H657.71v4.919h-2.038V609.9h2.038Zm4.111,7.783h2.3l-1.327,3.754h-1.65Zm22.054-3.188v1.731h-5.858v4.709h-2.054v-4.709h-5.874v-1.731ZM682,610.7v6.359H671.966V610.7ZM674,615.34h5.955v-2.929H674Zm16.327-3.932h3.252v1.731h-8.608v-1.731h3.317v-1.634h2.039Zm-1.019,8.317a4.877,4.877,0,0,1-1.521-.218,3.522,3.522,0,0,1-1.125-.591,2.587,2.587,0,0,1-.7-.858,2.282,2.282,0,0,1-.243-1.036v-.615a2.284,2.284,0,0,1,.243-1.036,2.587,2.587,0,0,1,.7-.858,3.521,3.521,0,0,1,1.125-.591,5.376,5.376,0,0,1,3.034,0,3.512,3.512,0,0,1,1.133.591,2.586,2.586,0,0,1,.7.858,2.285,2.285,0,0,1,.243,1.036v.615a2.283,2.283,0,0,1-.243,1.036,2.587,2.587,0,0,1-.7.858,3.513,3.513,0,0,1-1.133.591A4.9,4.9,0,0,1,689.311,619.725Zm.129,3.333h7.67v1.748h-9.725v-4.191h2.055Zm-.129-7.751a2.12,2.12,0,0,0-.719.113,1.686,1.686,0,0,0-.527.291,1.232,1.232,0,0,0-.316.388.931.931,0,0,0-.105.421v.388a.931.931,0,0,0,.105.421,1.217,1.217,0,0,0,.316.388,1.686,1.686,0,0,0,.527.291,2.343,2.343,0,0,0,1.439,0,1.7,1.7,0,0,0,.526-.291,1.244,1.244,0,0,0,.316-.388.938.938,0,0,0,.1-.421v-.388a.938.938,0,0,0-.1-.421,1.26,1.26,0,0,0-.316-.388,1.7,1.7,0,0,0-.526-.291A2.129,2.129,0,0,0,689.311,615.308Zm7.443-1.052h1.974v1.78h-1.974v4.773h-2.039V609.9h2.039Zm8.3-2.848h3.252v1.731H699.7v-1.731h3.317v-1.634h2.039Zm-1.019,8.317a4.879,4.879,0,0,1-1.521-.218,3.523,3.523,0,0,1-1.125-.591,2.587,2.587,0,0,1-.7-.858,2.275,2.275,0,0,1-.243-1.036v-.615a2.277,2.277,0,0,1,.243-1.036,2.587,2.587,0,0,1,.7-.858,3.522,3.522,0,0,1,1.125-.591,5.376,5.376,0,0,1,3.034,0,3.52,3.52,0,0,1,1.133.591,2.588,2.588,0,0,1,.7.858,2.284,2.284,0,0,1,.242,1.036v.615a2.282,2.282,0,0,1-.242,1.036,2.588,2.588,0,0,1-.7.858,3.521,3.521,0,0,1-1.133.591A4.9,4.9,0,0,1,704.036,619.725Zm.129,3.333h7.67v1.748h-9.725v-4.191h2.055Zm-.129-7.751a2.127,2.127,0,0,0-.72.113,1.69,1.69,0,0,0-.526.291,1.231,1.231,0,0,0-.316.388.93.93,0,0,0-.105.421v.388a.93.93,0,0,0,.105.421,1.216,1.216,0,0,0,.316.388,1.69,1.69,0,0,0,.526.291,2.345,2.345,0,0,0,1.44,0,1.7,1.7,0,0,0,.526-.291,1.251,1.251,0,0,0,.316-.388.939.939,0,0,0,.105-.421v-.388a.939.939,0,0,0-.105-.421,1.266,1.266,0,0,0-.316-.388,1.7,1.7,0,0,0-.526-.291A2.133,2.133,0,0,0,704.036,615.308Zm7.443-1.052h1.974v1.78h-1.974v4.773h-2.039V609.9h2.039Zm11.618,2.395v-2.735h2.055v2.735h6.941v1.715H718.308v-1.715Zm7.038-6.2v2.2c0,.184-.008.408-.024.672s-.04.548-.073.849-.07.6-.113.906-.092.577-.146.825l-1.99-.227a13.985,13.985,0,0,0,.243-1.6q.064-.744.064-1.359v-.534H720.1v-1.731ZM725.2,625.4a9.41,9.41,0,0,1-1.869-.178,5.605,5.605,0,0,1-1.546-.534,3.108,3.108,0,0,1-1.052-.882,2,2,0,0,1-.388-1.222V622.1a2,2,0,0,1,.388-1.222,3.109,3.109,0,0,1,1.052-.882,5.609,5.609,0,0,1,1.546-.534,9.9,9.9,0,0,1,3.738,0,5.615,5.615,0,0,1,1.545.534,3.118,3.118,0,0,1,1.052.882,2,2,0,0,1,.388,1.222v.485a2,2,0,0,1-.388,1.222,3.116,3.116,0,0,1-1.052.882,5.611,5.611,0,0,1-1.545.534A9.429,9.429,0,0,1,725.2,625.4Zm0-4.45a6.227,6.227,0,0,0-1.052.089,4.425,4.425,0,0,0-.914.251,1.911,1.911,0,0,0-.64.4.742.742,0,0,0-.242.534v.227a.742.742,0,0,0,.242.534,1.92,1.92,0,0,0,.64.4,4.387,4.387,0,0,0,.914.251,6.26,6.26,0,0,0,2.1,0,4.395,4.395,0,0,0,.914-.251,1.911,1.911,0,0,0,.639-.4.742.742,0,0,0,.243-.534v-.227a.742.742,0,0,0-.243-.534,1.9,1.9,0,0,0-.639-.4,4.433,4.433,0,0,0-.914-.251A6.223,6.223,0,0,0,725.2,620.955Zm7.96-3.107q1.715-.744,2.743-1.27a8.309,8.309,0,0,0,1.578-1,2.305,2.305,0,0,0,.72-.955,3.485,3.485,0,0,0,.17-1.149v-.907h-4.563v-1.747h6.6v2.864a5.112,5.112,0,0,1-.242,1.659,3.277,3.277,0,0,1-.939,1.335,9.654,9.654,0,0,1-1.95,1.294q-1.255.664-3.277,1.537Zm4.5,5.194h7.67v1.748h-9.724v-4.968h2.054Zm7.314-9.11h1.974v1.78h-1.974v4.9h-2.039V609.9h2.039Z" transform="translate(-579.395 -609.774)" fill="url(#linear-gradient-2)"/>
</svg>
