<svg xmlns="http://www.w3.org/2000/svg" width="24.183" height="18.602" viewBox="0 0 24.183 18.602">
  <g id="XMLID_17_" transform="translate(0 -45)">
    <path id="XMLID_18_" d="M22.633,48.1H18.239L17.3,45.6a.93.93,0,0,0-.871-.6H7.751a.93.93,0,0,0-.871.6l-.936,2.5H1.55A1.55,1.55,0,0,0,0,49.651v12.4A1.55,1.55,0,0,0,1.55,63.6H22.633a1.55,1.55,0,0,0,1.55-1.55v-12.4A1.55,1.55,0,0,0,22.633,48.1Zm-10.541,1.86A5.891,5.891,0,1,1,6.2,55.851,5.9,5.9,0,0,1,12.091,49.961Z" fill="#fff"/>
    <path id="XMLID_21_" d="M130,159.03a4.03,4.03,0,1,0,4.03-4.03A4.035,4.035,0,0,0,130,159.03Z" transform="translate(-121.939 -103.179)" fill="#fff"/>
  </g>
</svg>
