<svg xmlns="http://www.w3.org/2000/svg" width="19.692" height="24.793" viewBox="0 0 19.692 24.793">
  <g id="compass_1_" data-name="compass (1)" transform="translate(-51.355)">
    <g id="그룹_75" data-name="그룹 75" transform="translate(51.355)">
      <path id="패스_1058" data-name="패스 1058" d="M71.037,23.986,64.653,7.418A3.681,3.681,0,0,0,64.9,6.182V4.946a1.235,1.235,0,0,0-1.228-1.236H62.443V1.236a1.228,1.228,0,1,0-2.455,0V3.709H58.76a1.164,1.164,0,0,0-1.228,1.236V6.182a5.292,5.292,0,0,0,.246,1.36L51.394,23.986a.607.607,0,0,0,1.1.495L60.6,9.768a2.078,2.078,0,0,0,1.228,0l7.98,14.59A.65.65,0,0,0,71.037,23.986ZM61.216,8.037A1.234,1.234,0,0,1,59.988,6.8a1.164,1.164,0,0,1,1.228-1.236A1.235,1.235,0,0,1,62.443,6.8,1.164,1.164,0,0,1,61.216,8.037Z" transform="translate(-51.355)" fill="#fff"/>
    </g>
  </g>
</svg>
