<svg xmlns="http://www.w3.org/2000/svg" width="23.379" height="21.963" viewBox="0 0 23.379 21.963">
  <g id="XMLID_10_" transform="translate(0 -10)">
    <path id="XMLID_11_" d="M81.813,16.773l3.145-3.145V26.649a1.063,1.063,0,0,0,2.125,0V13.628l3.145,3.145a1.063,1.063,0,0,0,1.5-1.5l-4.959-4.959q-.037-.037-.078-.071l-.036-.027c-.016-.012-.031-.024-.047-.035l-.045-.027-.044-.026-.047-.023-.047-.022-.046-.017-.052-.018-.046-.012-.055-.013-.053-.008-.049-.007c-.033,0-.066,0-.1,0h-.013q-.049,0-.1,0l-.048.007-.055.008-.053.013-.048.012-.05.018-.048.017-.046.021-.049.023-.042.025-.047.029c-.015.01-.03.022-.045.033l-.039.029c-.026.021-.051.044-.074.067l0,0L80.31,15.27a1.063,1.063,0,0,0,1.5,1.5Z" transform="translate(-74.331 0)" fill="#fff"/>
    <path id="XMLID_12_" d="M22.317,160a1.063,1.063,0,0,0-1.063,1.063v8.147H2.125v-8.147a1.063,1.063,0,0,0-2.125,0v9.21a1.063,1.063,0,0,0,1.063,1.063H22.317a1.063,1.063,0,0,0,1.063-1.063v-9.21A1.063,1.063,0,0,0,22.317,160Z" transform="translate(0 -139.373)" fill="#fff"/>
  </g>
</svg>
