<svg xmlns="http://www.w3.org/2000/svg" xmlns:xlink="http://www.w3.org/1999/xlink" width="347" height="347" viewBox="0 0 347 347">
  <defs>
    <linearGradient id="linear-gradient" x1="0.098" y1="0.099" x2="0.921" y2="0.921" gradientUnits="objectBoundingBox">
      <stop offset="0" stop-color="#5bcdff"/>
      <stop offset="1" stop-color="#5bd330"/>
    </linearGradient>
  </defs>
  <g id="그룹_114" data-name="그룹 114" transform="translate(-3890 -841)">
    <rect id="사각형_587" data-name="사각형 587" width="347" height="347" transform="translate(3890 841)" fill="#fff"/>
    <g id="레이어_1" data-name="레이어 1" transform="translate(3962.878 913.826)">
      <path id="패스_11" data-name="패스 11" d="M144.77,89.165H56.7A34.152,34.152,0,0,1,22.138,58.112,33.646,33.646,0,0,1,68.37,24.56,32.982,32.982,0,0,1,89.146,55.645h0V74.619a6.324,6.324,0,0,0,6.324,6.324h9.487a6.324,6.324,0,0,0,6.324-6.324V55.645h0A55.118,55.118,0,0,0,72.734,2.614,55.782,55.782,0,0,0,0,56.373c.285,30.294,26.784,55.055,57.078,55.055H144.77A33.52,33.52,0,1,1,110.9,144.852h0V125.879a6.324,6.324,0,0,0-6.324-6.324H95.091a6.324,6.324,0,0,0-6.324,6.324v18.973h0a55.655,55.655,0,1,0,56-55.655Zm-61.031,73.87A33.488,33.488,0,1,1,38.265,116.2,57.9,57.9,0,0,1,16.13,105.767a55.592,55.592,0,0,0,77.854,79.277A55.023,55.023,0,0,1,83.738,163.035ZM144.77.053a55.055,55.055,0,0,0-38.39,15.463A56.509,56.509,0,0,1,116.436,38a33.488,33.488,0,1,1,46.042,46.105,55.592,55.592,0,0,1,22.136,10.309A55.592,55.592,0,0,0,144.77.053Z" transform="translate(0.001 0.025)" fill="url(#linear-gradient)"/>
    </g>
  </g>
</svg>