<svg xmlns="http://www.w3.org/2000/svg" width="28.651" height="28.674" viewBox="0 0 28.651 28.674">
  <g id="레이어_2" data-name="레이어 2" transform="translate(0.001 0.025)">
    <g id="레이어_1" data-name="레이어 1" transform="translate(-0.001 -0.025)">
      <path id="Path_11" data-name="Path 11" d="M20.7,12.729H8.107a4.884,4.884,0,0,1-4.942-4.44,4.811,4.811,0,0,1,6.611-4.8,4.716,4.716,0,0,1,2.971,4.445h0v2.713a.9.9,0,0,0,.9.9h1.357a.9.9,0,0,0,.9-.9V7.936h0A7.881,7.881,0,0,0,10.4.353,7.976,7.976,0,0,0,0,8.04a8.173,8.173,0,0,0,8.162,7.872H20.7a4.793,4.793,0,1,1-4.843,4.78h0V17.979a.9.9,0,0,0-.9-.9H13.6a.9.9,0,0,0-.9.9v2.713h0A7.958,7.958,0,1,0,20.7,12.733ZM11.973,23.292a4.789,4.789,0,1,1-6.5-6.7A8.279,8.279,0,0,1,2.306,15.1,7.949,7.949,0,0,0,13.438,26.439,7.868,7.868,0,0,1,11.973,23.292ZM20.7-.013A7.872,7.872,0,0,0,15.211,2.2a8.08,8.08,0,0,1,1.438,3.215,4.789,4.789,0,1,1,6.584,6.593A7.949,7.949,0,0,1,26.4,13.48,7.949,7.949,0,0,0,20.7-.013Z" transform="translate(0.001 0.025)" fill="#fff"/>
    </g>
  </g>
</svg>
