<svg xmlns="http://www.w3.org/2000/svg" width="25.08" height="24.103" viewBox="0 0 25.08 24.103">
  <g id="heart-shape-outline" transform="translate(0 0)">
    <path id="패스_2941" data-name="패스 2941" d="M23.3,38.491a6.319,6.319,0,0,0-4.913-1.946,5.039,5.039,0,0,0-1.771.337,6.858,6.858,0,0,0-1.679.91q-.777.573-1.337,1.075a13.571,13.571,0,0,0-1.064,1.067,13.59,13.59,0,0,0-1.064-1.067q-.56-.5-1.337-1.075a6.868,6.868,0,0,0-1.68-.91,5.04,5.04,0,0,0-1.77-.337,6.319,6.319,0,0,0-4.912,1.946A8.521,8.521,0,0,0,.329,46.054a10.109,10.109,0,0,0,.749,1.9,14.032,14.032,0,0,0,.952,1.53q.532.745.777,1.028a4.905,4.905,0,0,0,.385.408l8.733,9.447a.812.812,0,0,0,1.232,0l8.719-9.416q3.205-3.593,3.2-7.061A7.7,7.7,0,0,0,23.3,38.491ZM20.658,49.475,12.54,58.247,4.409,49.459q-2.617-2.934-2.617-5.57a7.606,7.606,0,0,1,.3-2.244,4.548,4.548,0,0,1,.77-1.546A3.753,3.753,0,0,1,4,39.165a4.685,4.685,0,0,1,1.316-.486,7.172,7.172,0,0,1,1.372-.125,3.664,3.664,0,0,1,1.568.4,7.013,7.013,0,0,1,1.546,1q.707.6,1.211,1.13a11.68,11.68,0,0,1,.84.965.854.854,0,0,0,1.372,0,11.648,11.648,0,0,1,.84-.965q.5-.525,1.211-1.13a7.011,7.011,0,0,1,1.547-1,3.664,3.664,0,0,1,1.568-.4,7.173,7.173,0,0,1,1.371.125,4.68,4.68,0,0,1,1.316.486,3.752,3.752,0,0,1,1.141.934,4.548,4.548,0,0,1,.77,1.546,7.613,7.613,0,0,1,.3,2.244Q23.289,46.525,20.658,49.475Z" transform="translate(0 -36.545)" fill="#fff"/>
  </g>
</svg>
