<svg xmlns="http://www.w3.org/2000/svg" width="16.684" height="22" viewBox="0 0 16.684 22">
  <path id="wait" d="M51.815,22a.755.755,0,1,0,0-1.51H50.521V18.172A7.362,7.362,0,0,0,46.9,12.1a1.316,1.316,0,0,1-.471-1.1A1.316,1.316,0,0,1,46.9,9.9a7.362,7.362,0,0,0,3.625-6.071V1.51h1.293a.755.755,0,0,0,0-1.51H36.641a.755.755,0,0,0,0,1.51h1.293V3.828A7.362,7.362,0,0,0,41.559,9.9,1.316,1.316,0,0,1,42.03,11a1.316,1.316,0,0,1-.471,1.1,7.362,7.362,0,0,0-3.625,6.071V20.49H36.641a.755.755,0,0,0,0,1.51Z" transform="translate(-35.886)" fill="#fff"/>
</svg>
