<svg xmlns="http://www.w3.org/2000/svg" width="24.001" height="24" viewBox="0 0 24.001 24">
  <g id="layer" transform="translate(0.001 -0.334)">
    <path id="패스_1061" data-name="패스 1061" d="M23.611,264.219l-3.075-1.531-6.76,3.366a4,4,0,0,1-3.552,0l-6.76-3.366L.389,264.219a.7.7,0,0,0,0,1.259l10.462,5.209a2.592,2.592,0,0,0,2.3,0l10.462-5.209a.7.7,0,0,0,0-1.259Zm0,0" transform="translate(0 -252.515)" fill="#fff"/>
    <path id="패스_1062" data-name="패스 1062" d="M23.611,421.363l-3.075-1.531-6.76,3.366a4,4,0,0,1-3.552,0l-6.76-3.366L.389,421.363a.7.7,0,0,0,0,1.259l10.462,5.209a2.591,2.591,0,0,0,2.3,0l10.462-5.209a.7.7,0,0,0,0-1.259Zm0,0" transform="translate(0 -403.766)" fill="#fff"/>
    <path id="패스_1063" data-name="패스 1063" d="M.39,7.07l10.462,5.209a2.591,2.591,0,0,0,2.3,0L23.611,7.07a.7.7,0,0,0,0-1.259L13.15.6a2.593,2.593,0,0,0-2.3,0L.39,5.811a.7.7,0,0,0,0,1.259Zm0,0" transform="translate(-0.001)" fill="#fff"/>
  </g>
</svg>
