<svg xmlns="http://www.w3.org/2000/svg" width="22" height="22" viewBox="0 0 22 22">
  <path id="color-palette" d="M22,11.165A10.976,10.976,0,0,0,11,.332h0A11.01,11.01,0,0,0,3.156,19.057a10.934,10.934,0,0,0,7.678,3.274h.135a3.158,3.158,0,0,0,2.406-1.107,3.205,3.205,0,0,0,.724-2.6,3.694,3.694,0,0,1-.046-.681,3.666,3.666,0,0,1,3.559-3.559,3.7,3.7,0,0,1,.681.046,3.206,3.206,0,0,0,2.6-.723A3.16,3.16,0,0,0,22,11.287c0-.04,0-.081,0-.122ZM5.046,6.932A1.934,1.934,0,1,1,3.112,8.865,1.934,1.934,0,0,1,5.046,6.932Zm0,8.8A1.934,1.934,0,1,1,6.979,13.8,1.933,1.933,0,0,1,5.046,15.732ZM8.534,19.22a1.934,1.934,0,1,1,1.934-1.934A1.934,1.934,0,0,1,8.534,19.22Zm0-11.909a1.934,1.934,0,1,1,1.934-1.934A1.934,1.934,0,0,1,8.534,7.311Zm4.933,0A1.934,1.934,0,1,1,15.4,5.377,1.933,1.933,0,0,1,13.467,7.311ZM16.955,10.8a1.934,1.934,0,1,1,1.934-1.933A1.934,1.934,0,0,1,16.955,10.8Zm0,0" transform="translate(0 -0.332)" fill="#fff"/>
</svg>
