<svg xmlns="http://www.w3.org/2000/svg" width="9.752" height="9.303" viewBox="0 0 9.752 9.303">
  <g id="black-star-silhouette" transform="translate(0 -11.33)">
    <g id="Group_2" data-name="Group 2" transform="translate(0 11.33)">
      <path id="Path_22" data-name="Path 22" d="M4.607,11.5a.3.3,0,0,1,.537,0l1.169,2.368a.755.755,0,0,0,.568.413l2.614.38a.3.3,0,0,1,.166.511L7.77,17.013a.755.755,0,0,0-.217.668L8,20.283a.3.3,0,0,1-.435.316L5.227,19.37a.755.755,0,0,0-.7,0L2.187,20.6a.3.3,0,0,1-.435-.316l.446-2.6a.755.755,0,0,0-.217-.668L.091,15.169a.3.3,0,0,1,.166-.511l2.613-.38a.755.755,0,0,0,.568-.413Z" transform="translate(0 -11.33)" fill="#09dc67"/>
    </g>
  </g>
</svg>
