<svg xmlns="http://www.w3.org/2000/svg" width="18.24" height="19.132" viewBox="0 0 18.24 19.132">
  <g id="settings" transform="translate(-0.559)">
    <path id="패스_1069" data-name="패스 1069" d="M18.418,11.7l0,0-1.225-1.126a8.028,8.028,0,0,0,0-2.007l1.229-1.13a1.208,1.208,0,0,0,.222-1.478l-1.352-2.34a1.2,1.2,0,0,0-1.4-.544l-1.59.5a7.338,7.338,0,0,0-1.734-1.007L12.2.934A1.2,1.2,0,0,0,11.034,0H8.324A1.2,1.2,0,0,0,7.163.933L6.794,2.567A7.338,7.338,0,0,0,5.06,3.574l-1.592-.5a1.2,1.2,0,0,0-1.4.54L.715,5.959A1.209,1.209,0,0,0,.944,7.437L2.169,8.563a8.022,8.022,0,0,0,0,2.006L.94,11.7a1.208,1.208,0,0,0-.222,1.478l1.352,2.34a1.2,1.2,0,0,0,1.4.544l1.59-.5a7.338,7.338,0,0,0,1.734,1.007L7.162,18.2a1.2,1.2,0,0,0,1.162.934h2.71A1.2,1.2,0,0,0,12.2,18.2l.369-1.634A7.311,7.311,0,0,0,14.3,15.558l1.592.5a1.2,1.2,0,0,0,1.4-.54l1.357-2.348a1.206,1.206,0,0,0-.225-1.473ZM9.679,13.95a4.384,4.384,0,1,1,4.384-4.384A4.389,4.389,0,0,1,9.679,13.95Z" transform="translate(0 0)" fill="#9e9ea0"/>
  </g>
</svg>
