<svg id="menu" xmlns="http://www.w3.org/2000/svg" width="22.464" height="16.513" viewBox="0 0 22.464 16.513">
  <path id="Path_14" data-name="Path 14" d="M21.528,124.5H.936a.916.916,0,1,1,0-1.831H21.528a.916.916,0,1,1,0,1.831Zm0,0" transform="translate(0 -115.327)" fill="#fff"/>
  <path id="Path_15" data-name="Path 15" d="M21.528,1.831H.936A.926.926,0,0,1,0,.915.926.926,0,0,1,.936,0H21.528a.926.926,0,0,1,.936.915A.926.926,0,0,1,21.528,1.831Zm0,0" fill="#fff"/>
  <path id="Path_16" data-name="Path 16" d="M21.528,247.163H.936a.916.916,0,1,1,0-1.831H21.528a.916.916,0,1,1,0,1.831Zm0,0" transform="translate(0 -230.649)" fill="#fff"/>
</svg>
