<svg xmlns="http://www.w3.org/2000/svg" width="19.875" height="19.875" viewBox="0 0 19.875 19.875">
  <g id="menu_2_" data-name="menu (2)" transform="translate(-0.001)">
    <g id="그룹_79" data-name="그룹 79" transform="translate(0.001)">
      <g id="그룹_78" data-name="그룹 78" transform="translate(0)">
        <path id="패스_1064" data-name="패스 1064" d="M7.22,0H1.514A1.515,1.515,0,0,0,0,1.513V7.219A1.515,1.515,0,0,0,1.514,8.732H7.22A1.515,1.515,0,0,0,8.733,7.219V1.513A1.515,1.515,0,0,0,7.22,0Z" transform="translate(-0.001 0)" fill="#fff"/>
        <path id="패스_1065" data-name="패스 1065" d="M173.725,0h-5.706a1.515,1.515,0,0,0-1.513,1.513V7.219a1.515,1.515,0,0,0,1.513,1.513h5.706a1.515,1.515,0,0,0,1.513-1.513V1.513A1.515,1.515,0,0,0,173.725,0Z" transform="translate(-155.364 0)" fill="#fff"/>
        <path id="패스_1066" data-name="패스 1066" d="M7.22,166.507H1.514A1.515,1.515,0,0,0,0,168.02v5.706a1.515,1.515,0,0,0,1.513,1.513H7.22a1.515,1.515,0,0,0,1.513-1.513V168.02A1.515,1.515,0,0,0,7.22,166.507Z" transform="translate(-0.001 -155.365)" fill="#fff"/>
        <path id="패스_1067" data-name="패스 1067" d="M173.725,166.507h-5.706a1.515,1.515,0,0,0-1.513,1.513v5.706a1.515,1.515,0,0,0,1.513,1.513h5.706a1.515,1.515,0,0,0,1.513-1.513V168.02A1.515,1.515,0,0,0,173.725,166.507Z" transform="translate(-155.364 -155.365)" fill="#fff"/>
      </g>
    </g>
  </g>
</svg>
