<svg id="black-star-silhouette" xmlns="http://www.w3.org/2000/svg" width="15.123" height="14.425" viewBox="0 0 15.123 14.425">
  <g id="그룹_2" data-name="그룹 2" transform="translate(0 0)">
    <g id="패스_22" data-name="패스 22" transform="translate(-0.001 -11.334)" fill="none">
      <path d="M7.145,11.592a.465.465,0,0,1,.833,0l1.813,3.673a1.171,1.171,0,0,0,.881.641l4.054.589a.465.465,0,0,1,.257.793l-2.933,2.855a1.171,1.171,0,0,0-.337,1.036l.693,4.036a.465.465,0,0,1-.675.49L8.107,23.8a1.171,1.171,0,0,0-1.086,0L3.392,25.706a.465.465,0,0,1-.675-.49l.692-4.033a1.171,1.171,0,0,0-.337-1.036L.141,17.282A.465.465,0,0,1,.4,16.49L4.451,15.9a1.171,1.171,0,0,0,.881-.641Z" stroke="none"/>
      <path d="M 7.561305046081543 13.00639533996582 L 6.228753089904785 15.70229148864746 C 5.91273307800293 16.34275054931641 5.302163124084473 16.78672218322754 4.594882965087891 16.88999176025391 L 1.613506317138672 17.32356071472168 L 3.770293235778809 19.4312915802002 C 4.281662940979004 19.93003082275391 4.514933586120605 20.64811134338379 4.39426326751709 21.35235214233398 L 3.885771751403809 24.3166561126709 L 6.557453155517578 22.91231155395508 C 6.86677360534668 22.7504711151123 7.214803218841553 22.66492080688477 7.563933372497559 22.66492080688477 C 7.913043022155762 22.66492080688477 8.261073112487793 22.75046157836914 8.572103500366211 22.91319274902344 L 11.23868465423584 24.31493186950684 L 10.72890281677246 21.34750175476074 C 10.60827255249023 20.64346122741699 10.84154319763184 19.92539215087891 11.35355281829834 19.42600059509277 L 13.50865745544434 17.32789611816406 L 10.52779388427734 16.89456176757812 C 9.821083068847656 16.79140090942383 9.210502624511719 16.34744071960449 8.894553184509277 15.70713043212891 L 7.561305046081543 13.00639533996582 M 7.56160306930542 11.33382225036621 C 7.738073348999023 11.33382225036621 7.899343013763428 11.43364143371582 7.978063106536865 11.59157180786133 L 9.791242599487305 15.26447105407715 C 9.96168327331543 15.60989189147949 10.29109382629395 15.84941101074219 10.67224311828613 15.90505218505859 L 14.72669315338135 16.49445152282715 C 14.90142345428467 16.52036094665527 15.04642295837402 16.64297103881836 15.10099315643311 16.81097221374512 C 15.15557289123535 16.97897148132324 15.11031341552734 17.16339111328125 14.98416328430176 17.28704071044922 L 12.05112266540527 20.14252090454102 C 11.77534294128418 20.41150093078613 11.64948272705078 20.79891204833984 11.71454334259033 21.17862129211426 L 12.40786361694336 25.21446228027344 C 12.43750286102295 25.38884162902832 12.36572265625 25.56494140625 12.22261333465576 25.66891098022461 C 12.14156341552734 25.7277889251709 12.04555702209473 25.75775909423828 11.94908905029297 25.75775909423828 C 11.87522411346436 25.75775909423828 11.80109786987305 25.74020004272461 11.73315334320068 25.7046012878418 L 8.106802940368652 23.7983512878418 C 7.93677806854248 23.70939636230469 7.75035572052002 23.66491889953613 7.563933372497559 23.66491889953613 C 7.377510547637939 23.66491889953613 7.191088199615479 23.70939636230469 7.021062850952148 23.7983512878418 L 3.391603469848633 25.70614242553711 C 3.323681831359863 25.74173355102539 3.249531745910645 25.75930023193359 3.175687789916992 25.75930023193359 C 3.079201698303223 25.75930023193359 2.983220100402832 25.72933578491211 2.902153015136719 25.67045211791992 C 2.759053230285645 25.56649017333984 2.687252998352051 25.3903923034668 2.716893196105957 25.21601104736328 L 3.408662796020508 21.18328094482422 C 3.473723411560059 20.8035717010498 3.347872734069824 20.41616058349609 3.072083473205566 20.14718055725098 L 0.1406030654907227 17.28238105773926 C 0.01445293426513672 17.15873146057129 -0.03080654144287109 16.97432136535645 0.023773193359375 16.80632209777832 C 0.07834339141845703 16.63832092285156 0.2233428955078125 16.51570129394531 0.3980731964111328 16.48980140686035 L 4.450973510742188 15.9004020690918 C 4.832113265991211 15.84475135803223 5.161533355712891 15.6052417755127 5.331973075866699 15.25981140136719 L 7.145153045654297 11.59157180786133 C 7.223863124847412 11.43364143371582 7.385143280029297 11.33382225036621 7.56160306930542 11.33382225036621 Z" stroke="none" fill="#09dc67"/>
    </g>
  </g>
</svg>
