<svg id="black-star-silhouette" xmlns="http://www.w3.org/2000/svg" width="15.123" height="14.425" viewBox="0 0 15.123 14.425">
  <g id="그룹_2" data-name="그룹 2" transform="translate(0 0)">
    <path id="패스_22" data-name="패스 22" d="M7.145,11.592a.465.465,0,0,1,.833,0l1.813,3.673a1.171,1.171,0,0,0,.881.641l4.054.589a.465.465,0,0,1,.257.793l-2.933,2.855a1.171,1.171,0,0,0-.337,1.036l.693,4.036a.465.465,0,0,1-.675.49L8.107,23.8a1.171,1.171,0,0,0-1.086,0L3.392,25.706a.465.465,0,0,1-.675-.49l.692-4.033a1.171,1.171,0,0,0-.337-1.036L.141,17.282A.465.465,0,0,1,.4,16.49L4.451,15.9a1.171,1.171,0,0,0,.881-.641Z" transform="translate(-0.001 -11.334)" fill="#09dc67"/>
  </g>
</svg>
